# xmcd CD database file
#
# Track frame offsets:
#	150
#	33372
#	59887
#	92015
#	120462
#	165950
#	243647
#	268492
#
# Disc length: 4341 seconds
#
# Revision: 2
# Processed by: cddbd v1.5.2PL0 Copyright (c) Steve Scherf et al.
# Submitted via: CDex 1.51
#
DISCID=6e10f308
DTITLE=Dexter Gordon - The Complete Prestige , Cd  07
DYEAR=2004
DGENRE=Jazz
TTITLE0=Blues Walk
TTITLE1=Valse Robin (Alternate)
TTITLE2=Mrs. Miniver (Alternate)
TTITLE3=Blues Walk (Alternate)
TTITLE4=Polka Dots And Moonbeams
TTITLE5=Wee Dot
TTITLE6=The Happy Blues
TTITLE7=Lonesome Lover Blues (Alternate)
EXTD=YEAR: 2004
EXTT0=
EXTT1=
EXTT2=
EXTT3=
EXTT4=
EXTT5=
EXTT6=
EXTT7=
PLAYORDER=
